<?xml version="1.0" encoding="UTF-8"?>
<svg id="_레이어_2" data-name="레이어_2" xmlns="http://www.w3.org/2000/svg" viewBox="0 0 6142.4439 6144.0333">
  <defs>
    <style>
      .cls-1 {
        fill: #fff;
      }
    </style>
  </defs>
  <g id="_레이어_1-2" data-name="레이어_1">
    <circle class="cls-1" cx="3078.8384" cy="3062.0333" r="2961"/>
    <path d="M2930.2494,1.3715c-5.3031.6783-38.0597,2.6516-72.8388,4.6249-70.8655,4.3289-227.1494,20.5221-269.8339,28.4646-15.5642,2.6516-36.4194,6.2652-46.3474,7.9548-130.1133,20.4728-292.3787,62.1954-470.196,121.4062-88.7361,29.4266-332.4117,132.0002-398.9852,168.0373-17.5902,9.4867-35.2391,18.864-52.9456,28.1316-408.5927,216.025-765.1771,531.9598-1054.5712,934.5585-101.6487,141.25-221.5132,347.0508-288.0991,494.5784-73.1718,161.7722-110.5531,260.3869-154.9273,406.94-24.518,80.362-47.6918,166.7424-53.6733,198.4874-1.295,8.2384-6.5982,33.3855-11.556,56.2138-20.1891,94.2859-35.7534,194.5409-48.6537,311.9881-6.9928,61.8625-7.6218,82.3844-7.6218,271.9058,0,167.4082.9743,217.7022,5.9198,274.6069,6.9928,83.334,22.2241,206.43,33.7924,274.545,4.6619,27.1821,10.2487,58.5818,11.9384,69.5211,2.9846,18.1664,7.9425,40.995,21.4841,100.8839,2.6516,11.9013,6.6598,28.7606,8.6331,38.0597,18.8695,84.0126,82.4215,290.1095,109.9241,356.2512,6.6105,15.9097,13.9363,36.7525,16.5756,46.3474,4.2919,17.2044,13.1963,39.6999,31.4122,79.7329,5.0072,11.2231,17.5869,40.6619,28.1809,65.4758,36.0864,85.7022,111.5768,229.2706,176.1277,335.4456,51.6506,84.3577,135.0958,204.1112,201.3364,287.8524,12.9127,16.1811,27.4533,35.075,32.4235,41.3281,4.6249,6.2651,18.2035,22.1624,29.4759,35.075,11.6177,12.9126,29.4759,33.1017,39.404,44.6579,61.9117,72.1233,154.3106,166.7422,225.1267,230.9109,22.8901,20.8552,47.3587,43.0176,54.6352,49.9485,16.2303,14.5529,75.2067,64.5138,105.9899,89.3281,12.2343,9.928,24.1357,19.856,26.146,21.8293,6.6105,6.302,81.1389,61.8502,115.5356,86.368,74.8614,52.9087,195.6878,131.3341,257.2666,167.026,55.6342,32.4359,148.0332,81.4224,210.2779,111.5274,42.6845,20.818,54.3022,26.109,97.6528,45.965,123.1822,55.5972,329.4763,127.0299,476.7942,164.7688,175.4987,45.3237,346.6809,72.7771,519.8734,84.0126,163.215,10.5942,283.7579,10.5942,461.8588-.3455,415.5609-24.8015,851.9397-154.4957,1239.9979-367.8691,223.1534-122.7505,455.5939-291.1208,635.7297-460.5146,64.8962-60.8389,91.0546-87.3424,145.3446-145.5294,234.0807-252.1112,406.2618-507.1582,544.6751-805.5555,47.3587-102.5614,134.0722-337.4682,160.5757-435.0224,1.9733-7.2764,7.2764-25.8253,11.5931-41.3894,21.8293-74.0967,51.6505-206.7258,64.9086-286.1629,11.2724-69.1267,18.5488-122.3681,24.8015-180.2717,15.5642-151.8562,20.2384-272.9172,14.9353-403.6225-6.9806-181.9612-14.9228-263.6674-43.0669-448.2186-9.5828-62.5285-34.7792-176.6703-61.5664-279.5647-13.5909-51.9343-19.8932-74.0967-36.7525-130.6558-7.2764-23.5068-46.3474-138.3147-56.2754-163.7948-10.6062-28.4275-24.185-62.8243-27.5027-71.1122-1.6402-3.6629-9.928-23.5068-18.2157-44.3248-26.8366-66.4749-94.3723-209.4145-127.1409-268.2923-10.5942-19.2148-24.1726-43.6958-30.1543-54.5736-53.2787-96.5921-145.3446-237.2255-222.8083-340.4157-230.4299-307.3633-554.6155-592.5148-904.6016-795.6272-173.4762-100.588-349.9492-179.6426-571.1293-256.391-43.0669-14.8859-239.3838-69.4718-288.0869-80.0659-28.1023-6.1181-56.2381-12.0791-84.4071-17.8829-7.2764-1.295-25.1963-4.9579-40.0823-7.9425-16.469-3.243-33.0313-5.9903-49.6651-8.2385-12.5795-1.6773-43.0176-5.9692-67.5478-9.9157C3358.7229,9.9923,3203.1172-.9471,3040.8641.0642c-55.3011,0-104.9785.629-110.6147,1.3073ZM3150.4674,247.5014c153.2992,6.9312,190.7175,10.6064,345.3243,33.4224,21.8666,2.9969,76.8348,12.925,109.9365,19.5232,7.2764,1.6403,20.8552,4.2919,29.7719,5.9692,14.5901,2.9353,25.5294,5.2539,74.5284,17.2046,6.2651,1.295,26.4914,6.5982,44.7072,11.556,18.2037,4.9702,38.3927,9.9281,44.7072,11.5684,6.2651,1.3566,22.1624,5.6362,34.7299,9.5828,12.9126,3.9959,29.143,8.6331,36.4194,10.6064,7.2764,1.9733,16.9086,4.9579,21.5335,6.3022,4.6249,1.6403,20.8673,6.5982,36.4194,11.5684,26.8366,8.2878,66.5365,22.1624,81.139,28.1192,3.6136,1.6526,17.8706,6.6105,31.449,11.5684,13.5415,4.9702,27.7986,9.9281,31.4614,11.5684,3.6136,1.6896,29.7719,11.9507,57.9036,23.1737,28.1934,11.2724,61.9609,25.48,74.5284,31.1162,12.9126,5.9198,31.4614,14.22,41.3894,18.4995,9.928,4.6249,50.9723,24.481,91.0546,44.6578,61.9116,31.4615,99.3299,52.2796,188.6949,104.5469,59.6424,35.0751,200.0414,133.0116,269.5501,187.9304,151.3259,119.7165,297.6818,258.6602,402.9441,383.051,12.5795,14.5899,29.4761,34.4461,37.4307,44.0288,14.5529,17.2045,35.7412,44.6579,88.7361,115.77,41.0443,54.5859,137.3899,202.138,160.2429,244.8226,4.329,8.2384,9.6197,17.2046,11.5931,19.8562,1.9857,2.6516,10.9517,18.1542,19.5233,34.7297,8.6333,16.1933,16.9086,31.0792,18.2037,33.0524,3.6629,4.6742,50.0103,97.6035,62.2447,124.0947,5.3031,11.9013,16.5755,35.7041,24.8632,53.2416,7.9547,17.5375,15.9097,35.3957,17.2044,39.6999,1.3444,4.2796,5.9693,15.5519,10.2611,25.147,4.329,9.2498,7.9426,17.8706,7.9426,18.8695,0,1.3073,2.6516,8.2509,6.3144,16.1933,25.4801,58.2489,75.1573,200.4607,96.6908,278.5534,1.9733,7.2764,5.6362,19.8562,7.9426,28.1439,2.3185,8.2262,5.92,21.4842,7.9547,29.7719,2.3064,8.2384,5.3031,19.1655,6.9313,24.8017,7.2764,26.1213,34.4461,147.5151,39.7492,177.0034,1.9398,11.6243,4.1397,23.2038,6.5982,34.7297,4.2918,20.4728,14.886,89.9446,22.8406,150.4998,4.329,31.7575,12.2837,115.141,16.5631,170.4052,8.6333,109.7884,7.2764,312.2717-2.6391,433.3451-6.6106,77.4144-21.2128,183.589-36.7646,264.6663-1.9733,8.9167-5.6362,28.4275-8.2877,42.9804-4.0833,22.7943-9.0492,45.4219-14.886,67.8316-1.6402,6.3144-6.9313,27.1328-11.6055,46.3474-9.5953,38.6762-10.5569,42.3394-22.8406,84.3577-4.958,16.1811-10.6062,35.6919-12.5795,42.9683-1.9733,7.2764-6.9313,22.8286-11.26,34.7299-4.2918,11.9506-7.9547,23.5192-7.9547,25.8253,0,2.3185-1.2951,6.5982-2.9353,9.928-1.6895,2.9846-7.3257,17.5375-11.9506,32.0783-9.5828,29.1057-23.8519,69.1387-28.1317,79.3998-1.3565,3.6629-8.2877,21.5335-14.886,39.6999-6.6599,18.2037-15.9097,41.0443-20.2263,50.6271-4.3042,9.5828-7.9178,18.4995-7.9178,19.856,0,1.6278-7.9426,18.8326-17.5744,39.0092-10.0085,20.1059-19.614,40.4101-28.8099,60.9003-11.2231,25.147-65.8582,132.9623-79.4491,157.1473-3.996,7.2764-14.5901,25.7759-23.1737,41.3401-101.9939,183.2684-264.9132,398.9357-421.4805,558.4018-22.2117,22.1624-43.4121,41.3894-47.3587,42.3514-3.6629,1.0113-17.883-.3455-31.4614-2.9971-13.5909-2.5898-33.4224-5.92-44.3741-7.2764-36.0739-3.6011-114.5614-28.7482-152.3252-48.5921-24.4808-12.925-83.445-51.6012-119.1862-78.4378-8.4549-6.2997-17.3075-12.0462-26.5035-17.2044-7.2764-3.9467-22.1624-13.5291-33.0896-21.1511-40.0823-28.4648-75.1573-41.0443-121.172-43.6958-40.4154-2.3064-73.1719,4.6866-109.9365,23.1861-48.9865,24.8015-102.3145,86.0352-126.4995,144.5677-3.2805,8.2877-17.5375,33.4348-31.1284,56.2261-31.7452,52.2674-64.218,86.0352-97.9859,102.2283-12.5795,5.9693-28.4768,13.5788-34.7792,16.8593-6.2651,3.3298-20.5221,8.6333-31.4614,11.6055-10.89,2.9846-27.1328,7.6095-36.4194,10.2611-10.6062,3.2805-32.0904,4.9704-59.9383,4.9704-48.3207,0-55.5972-.6782-100.6374-12.5795-99.6754-25.8253-163.8934-88.3537-179.1124-174.3517-4.9704-29.7719-1.9733-212.0662,4.958-293.0938,2.6516-31.7452,5.3031-92.991,5.9693-135.6631.6289-66.4751,0-80.6949-4.958-98.9106-20.2263-72.1113-70.5324-128.6705-149.6857-168.0373-180.4565-89.9939-450.6359-41.3774-600.2723,108.4935-33.4718,33.1017-54.6722,62.1954-73.5048,100.5881-24.185,49.2827-25.4923,56.2261-36.4316,183.6014-6.9804,82.7175-2.3062,224.5964,8.9169,269.5994,3.6629,13.9115,5.6362,44.9909,6.6597,105.8788,1.628,80.0784,1.2949,87.3424-4.9702,105.8419-3.6629,10.9393-8.6331,26.5035-10.6064,34.7419-10.594,40.033-57.9529,95.6301-103.6221,121.7268-19.8932,11.6175-59.9384,26.5159-80.4975,30.117-24.1357,4.6249-62.8738,4.6249-90.3763.3455-27.1326-4.6249-84.7401-32.769-104.3003-51.2685-32.0906-30.4377-63.552-93.6444-71.4944-144.9129-5.6362-34.7299-2.3186-110.5037,6.5982-149.5378,8.2877-37.0359,14.5529-113.4514,12.2344-150.4998-4.9578-74.4298-37.3814-164.0782-84.7401-234.2286-104.3003-154.4957-290.0725-252.4443-479.1129-252.4443-77.4637,0-136.773,12.9126-198.3395,43.3628-58.5818,29.1057-106.2735,70.4831-142.3599,124.0576-29.4759,43.9796-36.0741,57.5705-59.9384,124.0456-14.5899,40.7112-24.851,67.8316-27.8357,71.112-1.295,1.6895-4.2919,9.928-6.5982,18.2037-13.2456,48.9621-54.6352,120.7772-91.0547,157.4924-20.1892,20.5221-54.6352,45.3361-68.5469,49.2827-4.2919,1.2951-12.9126,5.3031-19.1778,8.9167-6.3145,3.6629-24.185,10.2611-39.7493,14.886-26.4913,7.6095-31.4492,7.9426-87.7247,6.6475-82.8161-1.9733-84.4565-2.6516-130.1133-49.6279-40.0823-40.6988-102.3394-112.8225-146.7012-169.3817-139.7207-178.6314-252.6417-363.2442-337.4312-550.8416-10.8406-24.3363-21.8707-48.588-33.0895-72.7523-8.9168-19.215-20.8675-46.6805-26.5036-61.2209-5.5868-14.5529-11.556-29.4388-12.9127-33.0524-19.8562-44.0289-64.884-174.3517-81.1265-233.2666-4.6249-17.2044-10.2611-37.3814-12.2344-44.6579-1.9733-7.2764-5.6362-19.856-7.9548-28.0948-7.9424-27.7862-11.223-41.3774-14.886-61.2209-2.2348-10.514-4.6607-20.9866-7.2765-31.4121-2.0103-6.3144-4.3289-17.5375-5.9692-24.8139-1.295-7.2764-5.6362-28.8099-9.5828-47.9756-9.6321-47.3218-12.5797-63.5149-16.9086-92.6455-2.3186-13.5415-5.3032-31.4121-6.9435-39.7123-1.6403-8.226-4.6249-29.0813-6.6475-46.2857-1.9733-17.2044-4.6249-42.6845-6.2652-56.2261-1.6773-13.5788-4.6249-47.0136-6.6475-73.8008-1.628-26.7873-4.6249-61.8623-6.5982-77.6978-1.6403-15.9097-3.3299-103.2519-3.3299-194.2078,0-165.435,2.9969-220.6869,16.2426-325.8628,1.6403-13.5786,4.6249-36.7523,6.5982-51.3054,2.0226-14.5529,5.6362-39.0217,8.6331-54.5858,2.9846-15.5026,6.6352-36.3701,8.2754-46.2981,4.6249-27.4533,8.6331-48.9374,14.553-74.4298,2.9846-12.9126,6.9805-30.7832,8.6331-39.6999,1.628-9.2498,5.2909-25.4799,8.6084-36.4194,2.8796-10.4116,5.5318-20.8848,7.9548-31.4121,26.4543-117.4472,101.3157-330.8207,162.8821-463.1539,5.6362-11.9013,15.9096-34.7421,22.8408-50.5901,7.3135-16.2302,17.2415-37.0483,22.5447-46.3474,5.3032-9.5827,17.1922-32.0781,26.4913-50.2447,83.7412-163.7948,217.5173-364.5884,347.6429-521.0697,8.2754-9.9158,36.7524-42.0062,62.9107-71.0998,192.3703-213.0898,393.3614-381.127,624.7904-523.3883,10.6064-6.5982,61.9118-36.3824,75.8357-43.9795,7.2764-4.0082,24.4686-13.9363,38.0597-21.4841,30.4379-17.2539,102.66-53.9692,134.1215-68.1769,12.9126-5.6362,34.3968-15.5643,47.9754-21.8294,13.591-6.3022,35.4574-15.8849,48.7154-20.8428,12.9004-5.3032,30.1048-12.5797,38.0474-16.1932,35.075-16.2426,145.0115-57.5705,198.0066-74.775,31.7945-10.2611,60.9498-19.8562,64.5633-21.5334,5.6362-2.3063,26.1459-7.8931,82.7546-23.4574,7.3257-2.3186,19.9055-5.6362,28.1932-7.9548,25.4799-6.9312,40.699-10.927,57.9036-14.886,9.2991-1.9733,24.8634-5.6362,34.7792-8.2878,36.0863-8.9044,64.5633-14.886,110.8985-23.1244,16.5755-2.9846,37.443-6.6475,46.3967-8.2878,150.3148-27.1203,386.3686-41.0443,564.5313-33.0895l-.0011-.0002Z"/>
    <path d="M1972.3691,940.2713c-45.6692,14.886-72.5057,59.5438-63.8849,106.1872,1.9733,9.9158,5.3031,21.4717,7.2764,25.813,1.9733,3.9466,29.1552,33.0525,60.2713,64.1687l56.6085,57.2252-54.9682,55.5602c-63.5396,63.5397-69.5211,73.1348-69.1882,110.1708,0,27.4656,7.2764,45.0032,25.8253,64.1687,18.2159,18.8818,37.7268,26.5037,67.2149,26.5037,35.3957,0,47.3587-7.6218,110.8985-71.1614l52.662-52.9456,58.2858,57.5705c52.662,52.2673,59.5931,57.9035,75.8233,62.8737,9.928,2.9845,23.5068,5.3032,30.1172,5.3032,32.1274,0,64.5509-19.1778,82.1379-48.9621,7.8931-13.5663,8.9044-18.8695,8.9044-43.6835,0-21.1511-1.628-31.4121-6.2529-41.3402-3.6629-7.2764-30.8325-38.0597-61.2951-68.8429l-54.6229-55.2025,54.9682-55.5973c30.1172-30.4502,57.6198-60.5551,60.6044-66.8202,3.6136-6.9435,6.5982-21.8294,7.6095-36.3823,1.6402-31.4492-6.6475-52.9333-28.1192-73.1348-20.5839-18.5365-34.4585-24.1234-63.9344-24.1234-35.7534-.333-47.704,7.2764-110.9107,70.7668l-52.662,52.6126-55.6218-54.5859c-39.0834-38.3926-59.9384-56.5592-70.8777-61.1717-19.8562-8.9661-48.3207-10.9517-66.8695-4.9703ZM3763.9854,940.9002c-17.2044,6.3022-40.033,27.7863-48.999,46.0022-9.5828,19.1778-9.2498,64.5017.6782,82.7175,3.9467,7.2764,31.1163,37.0483,60.2589,66.1419,29.4388,29.1059,53.2787,54.2529,53.2787,55.9302,0,1.9733-25.1346,28.7606-55.9178,59.5561-49.0483,49.8993-56.3247,58.5325-61.6157,74.4297-11.2231,34.3968-2.6516,71.0998,23.1613,96.9375,19.9056,19.4985,32.1397,24.1234,66.253,24.1234,38.7258,0,42.0556-1.9733,110.2571-69.1266l53.6363-52.9456,55.634,54.9189c63.2067,62.8614,72.1727,68.4482,108.5921,68.7936,52.3167,0,91.7328-38.6887,92.0659-90.956,0-37.0483-6.3144-46.9764-69.2253-110.5161l-54.6351-55.2149,52.9949-52.6003c63.2067-63.2067,70.8655-75.1081,70.8655-110.8491.2838-29.7842-7.9547-49.6281-28.5261-67.7946-19.8439-18.2035-36.7032-24.851-63.8849-24.851-36.0739,0-45.0403,5.9692-108.2469,68.5099l-55.634,55.2519-55.3134-54.5859c-31.1163-30.4502-61.5664-57.2252-68.8429-60.888-17.5868-8.5838-57.6198-9.9281-76.8348-2.9845v-.0002ZM2728.2963,1418.94c-109.2705,26.7873-190.0517,124.0577-196.0208,236.2141-6.9435,127.03,78.475,239.5195,202.9644,267.6141,20.1768,4.3289,63.256,5.3031,335.1125,5.3031,345.9903.3329,330.093,1.3442,381.0653-21.8295,53.9569-24.8139,98.331-68.4482,124.4893-122.0721,19.215-39.0339,25.8128-67.4987,25.8128-110.8121.3455-44.3248-6.9313-74.7627-27.4534-117.7803-32.1397-66.4872-88.0579-111.8234-167.2232-135.6261-18.5488-5.6362-42.3887-5.9692-336.0745-6.9805-304.946-.6167-317.1804-.296-342.6727,5.9692l.0004.0002ZM3211.6888,1540.6792l152.3372,1.9733,18.8326,8.9661c26.5035,12.2343,50.3434,35.4081,63.2684,61.8625,9.9156,20.1768,10.5942,23.8026,10.5942,56.5592,0,31.4121-.962,36.703-9.5953,55.2518-16.8962,36.3823-56.9416,67.1533-95.3836,72.7893-9.5828,1.6402-144.0002,1.9733-298.9769.9742l-281.4394-1.6402-18.8448-8.9662c-26.4912-12.2344-50.3434-35.3588-63.256-61.85-9.9158-20.4728-10.6064-23.8026-10.6064-58.2118,0-33.4225.6782-38.0474,9.2498-55.5849,17.5992-35.075,54.6351-64.1687,91.733-71.4451,17.2539-3.3299,215.211-3.6629,432.0869-.6783l.0004.0002Z"/>
    <g>
      <path d="M756.5264,3606.8302c-23.0625,0-42.625-1.4062-58.6875-4.1875-16.0781-2.8125-29.5312-9.2812-40.3594-19.4062-10.8281-10.1406-19.3906-25.3438-25.6719-45.5938-6.2812-20.2812-11-47.5312-14.1406-81.7812-3.1562-34.25-5.25-77.0469-6.2969-128.4219s-1.5625-113.4062-1.5625-186.0938.5156-134.5156,1.5625-185.5469c1.0469-51.0156,3.5-93.8281,7.3438-128.4219s9.5938-61.8594,17.2812-81.7812c7.6875-19.9062,17.9844-35.1094,30.9219-45.5938,12.9219-10.4844,28.9844-17.125,48.2031-19.9219s42.4531-4.2031,69.7031-4.2031h60.7812c29.3438,0,52.5625,2.9844,69.6875,8.9219s31.4375,16.9531,42.9688,33.0156c11.5312,16.0781,22.5312,38.4375,33.0156,67.0938,10.4688,28.6562,24.0938,65.3594,40.875,110.0781,20.25,53.8125,35.7969,95.5781,46.625,125.2812s18.8594,51.5469,24.1094,65.5156c5.2344,13.9844,8.5469,22.2031,9.9531,24.6406,1.4062,2.4531,2.4531,3.6719,3.1562,3.6719,1.3906,0,2.0938-3.4844,2.0938-10.4844v-20.9688c0-62.9062.5156-116.7188,1.5625-161.4531,1.0469-44.7188,3.3125-82.1094,6.8125-112.1719,3.5-30.0469,8.5625-53.8125,15.2031-71.2812,6.625-17.4688,15.3594-30.75,26.1875-39.8438,10.8281-9.0781,24.1094-14.8438,39.8281-17.2969,15.7188-2.4375,34.7656-3.6719,57.125-3.6719,23.0469,0,42.6094,1.4062,58.6875,4.2031,16.0625,2.7969,29.5156,9.2656,40.3438,19.3906,10.8281,10.1406,19.3906,25.3438,25.6719,45.6094s11,47.5156,14.1562,81.7656c3.1406,34.25,5.2344,77.0625,6.2812,128.4375s1.5781,113.3906,1.5781,186.0781-.5312,134.5312-1.5781,185.5469c-1.0469,51.0312-3.6719,93.8438-7.8594,128.4375-4.1875,34.5781-9.9531,61.8438-17.2969,81.7656-7.3438,19.9062-17.6406,35.1094-30.9062,45.6094-13.2812,10.4688-29.5156,17.1094-48.7344,19.9219-19.2188,2.7812-42.4375,4.1875-69.6875,4.1875h-60.7812c-29.3438,0-52.0625-2.625-68.125-7.8594-16.0781-5.25-29.875-15.7344-41.4062-31.4531-11.5312-15.7344-22.5312-37.9219-33-66.5781-10.4844-28.6562-24.4531-66.0469-41.9219-112.1719-20.2656-54.5-35.9844-96.6094-47.1562-126.3125-11.1875-29.7031-19.3906-51.5469-24.625-65.5312-5.25-13.9688-8.5625-22.1875-9.9688-24.6406-1.4062-2.4375-2.4531-3.6719-3.1406-3.6719-1.4062,0-2.0938,3.5-2.0938,10.4844v20.9688c0,62.9062-.5312,116.7344-1.5781,161.4531-1.0469,44.7344-3.3125,82.125-6.8125,112.1719s-8.5625,53.8125-15.1875,71.2969c-6.6406,17.4531-15.375,30.7344-26.2031,39.8281-10.8281,9.0781-24.2812,14.8438-40.3438,17.2969-16.0781,2.4375-34.9375,3.6719-56.5938,3.6719ZM885.4326,2741.9396c0,5.5938,3.3125,11.3594,9.9531,17.2969,6.625,5.9375,12.75,8.9062,18.3438,8.9062,5.5781,0,9.9375-1.7344,13.0938-5.2344,3.1406-3.5,4.7188-8.0312,4.7188-13.625,0-6.2812-3.1562-12.2188-9.4375-17.8125s-12.2188-8.3906-17.8125-8.3906-10.125,1.75-13.625,5.25-5.2344,8.0312-5.2344,13.6094ZM1300.4326,2741.9396c0,5.5938,3.3125,11.3594,9.9531,17.2969s12.75,8.9062,18.3438,8.9062,9.9531-1.7344,13.0938-5.2344,4.7188-8.0312,4.7188-13.625c0-6.2812-3.1562-12.2188-9.4375-17.8125s-12.2188-8.3906-17.7969-8.3906c-5.5938,0-10.1406,1.75-13.6406,5.25s-5.2344,8.0312-5.2344,13.6094Z"/>
      <path d="M1484.0801,3471.3458c0-32.8438,1.2188-58.5312,3.6719-77.0625,2.4375-18.5312,8.375-32.5156,17.8125-41.9531s23.9375-15.2031,43.5-17.2969,46.1094-3.1562,79.6406-3.1562,59.8906,1.0625,79.1094,3.1562,33.5312,7.8594,42.9688,17.2969,15.375,23.4219,17.8281,41.9531c2.4375,18.5312,3.6719,44.2188,3.6719,77.0625s-1.2344,58.7344-3.6719,77.6094c-2.4531,18.875-8.3906,33.0312-17.8281,42.4688s-23.75,15.2031-42.9688,17.3125c-19.2188,2.0781-45.5781,3.1406-79.1094,3.1406s-60.0781-1.0625-79.6406-3.1406c-19.5625-2.1094-34.0625-7.875-43.5-17.3125s-15.375-23.5938-17.8125-42.4688c-2.4531-18.875-3.6719-44.75-3.6719-77.6094ZM1697.877,3396.9396c5.5781,1.4062,9.9375,5.0625,13.0938,11,3.1406,5.9375,8.2031,8.9062,15.2031,8.9062,5.5781,0,9.7656-1.7344,12.5625-5.2344,2.7969-3.4844,4.2031-7.6719,4.2031-12.5781,0-4.1875-1.5781-8.375-4.7188-12.5625-3.1562-4.1875-6.8281-8.0312-11.0156-11.5312s-8.7344-6.2969-13.625-8.3906-9.0781-3.1406-12.5625-3.1406c-10.4844,0-15.7188,5.9375-15.7188,17.8125,0,8.3906,4.1875,13.625,12.5781,15.7188Z"/>
      <path d="M2254.4551,3066.8302c37.0312,0,66.1875,1.0625,87.5,3.1562s37.2031,6.9844,47.6875,14.6719c10.4688,7.6875,17.1094,19.0469,19.9062,34.0625,2.7969,15.0312,4.2031,35.8125,4.2031,62.3594,0,26.5625-1.4062,47.3594-4.2031,62.375-2.7969,15.0312-9.4375,26.375-19.9062,34.0625-10.4844,7.6875-26.375,12.5781-47.6875,14.6719s-50.4688,3.1406-87.5,3.1406h-97.4688c-.7031,72.6875-2.7969,130.1562-6.2812,172.4375-3.5,42.2656-10.6562,74.0625-21.4844,95.375-10.8438,21.3125-26.3906,34.75-46.6406,40.3594-20.2656,5.5781-47.5156,8.375-81.7344,8.375-37.0312,0-66.0312-3.5-87-10.4844-20.9688-7-36.5156-24.2969-46.6406-51.875-10.125-27.6094-16.4219-69-18.8594-124.2031s-3.6562-130.6719-3.6562-226.4062v-437.0781c0-15.375,1.5625-28.4688,4.7188-39.3125,3.1406-10.8281,9.0781-19.7344,17.8125-26.7188,8.7188-6.9844,20.7656-12.0469,36.1406-15.2031,15.375-3.1406,35.6406-4.7188,60.7969-4.7188h306.0156c39.125,0,69.8594,1.0469,92.2188,3.1406s39.2969,7.1719,50.8281,15.2031,18.6875,20.0938,21.4844,36.1562c2.7969,16.0781,4.2031,38.0938,4.2031,66.0312,0,27.2656-1.4062,48.9375-4.2031,65s-9.7812,28.125-20.9531,36.1562c-11.1875,8.0312-28.125,13.2812-50.8281,15.7188-22.7188,2.4531-53.625,3.6719-92.75,3.6719h-113.1875v149.875h97.4688ZM2364.502,2739.8458c5.5781,1.4062,9.9375,5.0625,13.0938,11,3.1406,5.9375,8.2031,8.9062,15.2031,8.9062,5.5781,0,9.7656-1.7344,12.5625-5.2344,2.7969-3.4844,4.2031-7.6719,4.2031-12.5781,0-4.1875-1.5781-8.375-4.7188-12.5625-3.1562-4.1875-6.8281-8.0312-11.0156-11.5312s-8.7344-6.2969-13.625-8.3906-9.0781-3.1406-12.5625-3.1406c-10.4844,0-15.7188,5.9375-15.7188,17.8125,0,8.3906,4.1875,13.625,12.5781,15.7188Z"/>
      <path d="M2669.646,3606.8771c-27.9531,0-51.7031-1.4062-71.2656-4.1875-19.5625-2.8125-35.9844-9.2812-49.2656-19.4062-13.2812-10.1406-23.75-25.3438-31.4375-45.5938-7.6875-20.2812-13.4375-47.5312-17.2812-81.7812s-6.2969-77.0625-7.3438-128.4375-1.5625-113.4062-1.5625-186.0938.5156-134.7188,1.5625-186.0938,3.5-94.1875,7.3438-128.4375,9.5938-61.5,17.2812-81.7656,18.1562-35.4688,31.4375-45.6094c13.2812-10.125,29.7031-16.5938,49.2656-19.3906s43.3125-4.2031,71.2656-4.2031c27.9375,0,51.7031,1.4062,71.2656,4.2031s35.9688,9.2656,49.25,19.3906c13.2656,10.1406,23.75,25.3438,31.4375,45.6094s13.4531,47.5156,17.2969,81.7656,6.2812,77.0625,7.3281,128.4375,1.5781,113.4062,1.5781,186.0938-.5312,134.7188-1.5781,186.0938-3.4844,94.1875-7.3281,128.4375-9.6094,61.5-17.2969,81.7812c-7.6875,20.25-18.1719,35.4531-31.4375,45.5938-13.2812,10.125-29.6875,16.5938-49.25,19.4062-19.5625,2.7812-43.3281,4.1875-71.2656,4.1875ZM2745.0991,2746.1271c5.5938,1.4062,9.9531,5.0781,13.0938,11.0156s8.2031,8.9062,15.2031,8.9062c5.5938,0,9.7812-1.7344,12.5781-5.2344,2.7812-3.5,4.1875-7.6875,4.1875-12.5781,0-4.1875-1.5781-8.3906-4.7188-12.5781-3.1562-4.1875-6.8125-8.0312-11-11.5312-4.1875-3.4844-8.7344-6.2812-13.625-8.375s-9.0781-3.1562-12.5781-3.1562c-10.4844,0-15.7188,5.9375-15.7188,17.8125,0,8.3906,4.1875,13.625,12.5781,15.7188Z"/>
      <path d="M3080.5747,3606.8771c-21.6562,0-40-1.4062-55.0156-4.1875-15.0312-2.8125-27.7812-9.2812-38.25-19.4062-10.4844-10.1406-18.6875-25.3438-24.625-45.5938-5.9375-20.2812-10.4844-47.5312-13.625-81.7812-3.1562-34.25-5.0781-77.0625-5.7656-128.4375-.7031-51.375-1.0469-113.4062-1.0469-186.0938s.6875-134.7188,2.0938-186.0938c1.3906-51.375,4.3594-94.1875,8.9062-128.4375,4.5312-34.25,11.3438-61.5,20.4375-81.7656,9.0781-20.2656,21.2969-35.4688,36.6719-45.6094,15.375-10.125,34.4062-16.5938,57.125-19.3906,22.7031-2.7969,50.4688-4.2031,83.3125-4.2031,48.2031,0,86.625,2.2812,115.2812,6.8125,28.6406,4.5469,51,15.7344,67.0625,33.5469,16.0625,17.8281,28.125,44.3906,36.1562,79.6875s15.5469,84.0469,22.5469,146.25c6.9688,65,12.5625,115.1562,16.75,150.4531s7.3438,60.9844,9.4375,77.0625,3.5,25.5156,4.2031,28.3125c.6875,2.7969,1.3906,4.1875,2.0938,4.1875.6875,0,1.5625-1.3906,2.6094-4.1875s2.625-12.2344,4.7188-28.3125,5.0781-41.7656,8.9219-77.0625,9.5938-85.4531,17.2812-150.4531c4.8906-41.2344,9.6094-76.5312,14.1562-105.8906,4.5312-29.3438,10.2969-53.8125,17.2812-73.3906,6.9844-19.5625,15.7188-35.125,26.2031-46.6562,10.4688-11.5312,23.9219-20.2656,40.3438-26.2031s36.1562-9.7812,59.2188-11.5312c23.0469-1.75,51-2.625,83.8438-2.625,32.125,0,59.7188,1.4062,82.7812,4.2031s42.2656,9.2656,57.6406,19.3906c15.375,10.1406,27.4219,25.3438,36.1562,45.6094s15.375,47.5156,19.9219,81.7656c4.5312,34.25,7.5,77.0625,8.9062,128.4375,1.3906,51.375,2.0938,113.4062,2.0938,186.0938s-.3594,134.7188-1.0469,186.0938c-.7031,51.375-2.625,94.1875-5.7656,128.4375-3.1562,34.25-7.6875,61.5-13.625,81.7812-5.9375,20.25-14.1562,35.4531-24.625,45.5938-10.4844,10.125-23.2344,16.5938-38.25,19.4062-15.0312,2.7812-33.3594,4.1875-55.0156,4.1875-20.2656,0-37.7344-1.2344-52.4062-3.6719-14.6719-2.4531-27.0781-8.0469-37.2031-16.7656-10.1406-8.75-18.3594-21.1562-24.6406-37.2188-6.2812-16.0938-11-37.9375-14.1406-65.5312-3.1562-27.6094-5.25-61.5156-6.2969-101.7031s-1.5625-88.9375-1.5625-146.25v-17.2969c0-6.6406-.1875-12.75-.5312-18.3438s-.875-10.3125-1.5625-14.1562c-.7031-3.8438-1.4062-5.7656-2.0938-5.7656-1.4062,0-2.4531,1.4062-3.1406,4.1875-.7031,2.7969-2.2812,11.0156-4.7188,24.6406-2.4531,13.625-5.9531,34.5938-10.4844,62.9062-4.5469,28.3125-10.6562,67.625-18.3438,117.9375-7.6875,51.0312-14.8438,91.0625-21.4844,120.0625-6.6406,28.9844-15.5469,50.6562-26.7188,65-11.1875,14.3125-25.8594,23.2188-44.0156,26.7344-18.1719,3.4844-42.9688,5.2344-74.4062,5.2344s-56.25-1.75-74.4062-5.2344c-18.1719-3.5156-32.8438-12.4219-44.0156-26.7344-11.1875-14.3438-20.2656-36.0156-27.25-65-7-29-14.3281-69.0312-22.0156-120.0625-7.6875-50.3125-13.625-89.625-17.8125-117.9375s-7.5156-49.2812-9.9531-62.9062c-2.4531-13.625-4.2031-21.8438-5.25-24.6406-1.0469-2.7812-1.9219-4.1875-2.6094-4.1875-1.4062,0-2.2812,1.9219-2.625,5.7656s-.7031,8.5625-1.0469,14.1562-.5156,11.7031-.5156,18.3438v17.2969c0,56.625-.5312,105.2031-1.5781,145.7344s-3.1406,74.6094-6.2812,102.2188c-3.1562,27.5938-7.875,49.6094-14.1562,66.0469-6.2812,16.4219-14.5,28.8281-24.625,37.2188-10.1406,8.375-22.5469,13.7969-37.2188,16.25-14.6719,2.4375-32.1406,3.6719-52.3906,3.6719ZM3260.8403,2741.9396c0,5.5938,3.3125,11.3594,9.9531,17.2969,6.625,5.9375,12.75,8.9062,18.3438,8.9062,5.5781,0,9.9375-1.7344,13.0938-5.2344,3.1406-3.5,4.7188-8.0312,4.7188-13.625,0-6.2812-3.1562-12.2188-9.4375-17.8125s-12.2188-8.3906-17.8125-8.3906-10.1406,1.75-13.625,5.25c-3.5,3.5-5.2344,8.0312-5.2344,13.6094ZM3792.1685,2741.9396c0,5.5938,3.3125,11.3594,9.9531,17.2969s12.75,8.9062,18.3438,8.9062,9.9531-1.7344,13.0938-5.2344,4.7188-8.0312,4.7188-13.625c0-6.2812-3.1562-12.2188-9.4375-17.8125s-12.2188-8.3906-17.7969-8.3906c-5.5938,0-10.1406,1.75-13.6406,5.25s-5.2344,8.0312-5.2344,13.6094Z"/>
      <path d="M4272.4585,3434.7833c-7.6875,40.5312-15.9062,72.4688-24.625,95.8906-8.7344,23.3906-19.3906,41.2031-31.9688,53.4375-12.5781,12.2031-28.4688,19.8906-47.6875,23.0469-19.2188,3.1406-43.1406,4.7188-71.7812,4.7188-24.4531,0-45.5938-1.5781-63.4062-4.7188-17.8125-3.1562-32.3125-10.1406-43.4844-20.9531-11.1875-10.8438-18.875-26.3906-23.0625-46.625-4.1875-20.2656-5.2344-47.8594-3.1406-82.7812,2.0938-34.9375,7.3281-78.25,15.7188-129.9375,8.375-51.6875,20.2656-113.875,35.6406-186.5312,15.3594-73.3438,29.1562-135.875,41.3906-187.5625,12.2188-51.6875,24.9688-95,38.25-129.9375,13.2656-34.9375,27.4062-62.3594,42.4375-82.2656,15.0156-19.9062,33-35.1094,53.9688-45.5781s45.4219-17.1094,73.375-19.9062c27.9375-2.7969,61.125-4.2031,99.5625-4.2031,38.4062,0,71.5938,1.4062,99.5469,4.2031,27.9375,2.7969,52.3906,9.4375,73.3594,19.9062s38.9531,25.6719,53.9844,45.5781c15.0156,19.9062,29.1562,47.3281,42.4375,82.2656,13.2656,34.9375,26.1875,78.25,38.7656,129.9375s26.5625,114.2188,41.9375,187.5625c15.3594,72.6562,27.4062,134.8438,36.1406,186.5312s13.9688,95,15.7188,129.9375c1.75,34.9219.5156,62.5156-3.6719,82.7812-4.1875,20.2344-12.0469,35.7812-23.5781,46.625-11.5312,10.8125-26.2031,17.7969-44.0156,20.9531-17.8125,3.1406-38.9531,4.7188-63.3906,4.7188-29.3438,0-53.4531-1.5781-72.3125-4.7188-18.875-3.1562-34.5938-10.8438-47.1719-23.0469-12.5781-12.2344-23.0625-30.0469-31.4375-53.4375-8.375-23.4219-16.4062-55.3594-24.0938-95.8906-13.9844.7031-28.8281,1.0469-44.5469,1.0469h-96.9375c-14.6719,0-28.6406-.3438-41.9219-1.0469ZM4360.4898,3194.6739h27.7656c8.7344,0,17.6406.3594,26.7344,1.0469-8.3906-50.2969-15.2031-89.4219-20.4375-117.375-5.25-27.9375-9.6094-48.5469-13.1094-61.8281-3.5-13.2656-6.6406-21.2969-9.4219-24.0938-2.7969-2.7969-5.5938-4.2031-8.375-4.2031-3.5,0-6.6562,1.4062-9.4375,4.2031-2.7969,2.7969-5.9375,10.6562-9.4375,23.5781s-7.6875,33.3594-12.5781,61.2969c-4.8906,27.9531-11.5312,67.0781-19.9062,117.375h48.2031ZM4493.5835,2770.2364c13.9688,0,26.0312,4.8906,36.1562,14.6719s16.25,18.875,18.3438,27.25c1.3906,5.5938,4.3594,9.4375,8.9062,11.5312,4.5312,2.0938,9.9531,1.75,16.25-1.0469,5.5781-2.7969,8.7188-6.6406,9.4219-11.5312s.3594-9.0781-1.0469-12.5781c-7.6875-20.25-18.8594-36.1406-33.5312-47.6719s-32.4844-17.2969-53.4375-17.2969c-6.2969,0-11.8906,1.2344-16.7812,3.6719s-7.3281,7.5-7.3281,15.1875,2.4375,12.5781,7.3281,14.6719,10.125,3.1406,15.7188,3.1406Z"/>
      <path d="M5132.0532,3385.4708c-1.4062,49.625-4.375,89.2812-8.9062,118.9688-4.5469,29.6875-12.5781,52.4062-24.1094,68.1406-11.5312,15.7031-27.0625,26.1875-46.625,31.4375-19.5625,5.2344-44.7188,7.8594-75.4531,7.8594-37.0312,0-66.0312-3.5-87-10.4844-20.9688-7-36.5156-24.2969-46.6406-51.875-10.125-27.6094-16.4219-69-18.8594-124.2031s-3.6562-130.6719-3.6562-226.4062v-437.0781c0-15.375,1.5625-28.4688,4.7188-39.3125,3.1406-10.8281,9.0781-19.7344,17.8125-26.7188,8.7188-6.9844,20.7656-12.0469,36.1406-15.2031,15.375-3.1406,35.6406-4.7188,60.7969-4.7188h241.0469c78.9375,0,143.2188,6.125,192.8281,18.3438,49.5938,12.2344,88.2031,32.3281,115.7969,60.2656,27.5938,27.9531,46.4688,64.4688,56.5938,109.5312,10.125,45.0781,15.2031,100.4531,15.2031,166.1406,0,67.7812-5.7656,124.3906-17.2969,169.7969-11.5312,45.4219-31.2812,81.9375-59.2188,109.5312-27.9375,27.6094-65.6719,47.1719-113.1719,58.7031-47.5156,11.5312-106.9062,17.2812-178.1562,17.2812h-61.8438ZM5155.1157,3155.9083c32.125,0,53.7812-8.7344,64.9688-26.2031,11.1719-17.4688,16.7656-48.5625,16.7656-93.2812v-9.4219c0-40.5156-5.9375-68.9844-17.8125-85.4062s-33.5312-24.6406-64.9688-24.6406h-20.9688v238.9531h22.0156ZM5380.4282,2775.4708c27.9375,13.9844,47.1562,29.3594,57.6406,46.125,3.5,5.5938,7.8594,8.9062,13.1094,9.9531,5.2344,1.0469,9.7812.5156,13.625-1.5781s6.4531-5.5781,7.8594-10.4688c1.3906-4.8906-.0156-10.4844-4.2031-16.7812-8.375-13.9688-19.0312-26.1875-31.9531-36.6719-12.9375-10.4688-25.6875-18.5156-38.25-24.1094-5.5938-2.0938-11.5469-3.1406-17.8281-3.1406s-11.1719,2.7969-14.6719,8.375c-4.1875,7.6875-4.1875,13.6406,0,17.8281s9.0781,7.6875,14.6719,10.4688Z"/>
    </g>
  </g>
</svg>