<?xml version="1.0" encoding="UTF-8"?>
<svg id="_레이어_2" data-name="레이어_2" xmlns="http://www.w3.org/2000/svg" viewBox="0 0 17.8712 24">
  <defs>
    <style>
      .cls-1 {
        fill: #9c9c9c;
      }
    </style>
  </defs>
  <g id="_레이어_1-2" data-name="레이어_1">
    <g>
      <g>
        <path d="M17.8712,9.4872c-.0328,1.0745-.2509,2.2589-.6815,3.4165-.471,1.2659-1.2646,2.3168-2.0681,3.3704-1.8656,2.4463-3.7278,4.8952-5.5918,7.3426-.3893.5111-.8042.5118-1.1966-.003-2.1043-2.7605-4.2185-5.5136-6.3073-8.2858C-.6285,11.8054-.6775,7.0691,1.8966,3.5898c3.7459-5.0632,11.0274-4.6005,14.3295.3183,1.1024,1.642,1.639,3.4529,1.6451,5.5791Z"/>
        <circle class="cls-1" cx="8.9356" cy="9.1" r="8.5"/>
      </g>
      <g>
        <path d="M8.5569.8052c-.0142.0018-.1022.0071-.1957.0124-.1904.0116-.6102.0551-.7248.0765-.0418.0071-.0978.0168-.1245.0214-.3495.055-.7854.1671-1.2631.3261-.2384.079-.8929.3546-1.0718.4514-.0473.0255-.0947.0507-.1422.0756-1.0976.5803-2.0554,1.429-2.8328,2.5104-.2731.3794-.595.9323-.7739,1.3285-.1966.4346-.297.6995-.4162,1.0931-.0659.2159-.1281.4479-.1442.5332-.0035.0221-.0177.0897-.031.151-.0542.2533-.096.5226-.1307.8381-.0188.1662-.0205.2213-.0205.7304,0,.4497.0026.5848.0159.7377.0188.2239.0597.5545.0908.7375.0125.073.0275.1574.0321.1867.008.0488.0213.1101.0577.271.0071.032.0179.0773.0232.1022.0507.2257.2214.7793.2953.957.0178.0427.0374.0987.0445.1245.0115.0462.0354.1066.0844.2142.0135.0301.0472.1092.0757.1759.0969.2302.2997.6159.4731.9011.1387.2266.3629.5483.5408.7732.0347.0435.0737.0942.0871.111.0124.0168.0489.0595.0792.0942.0312.0347.0792.0889.1058.12.1663.1937.4145.4479.6047.6203.0615.056.1272.1156.1468.1342.0436.0391.202.1733.2847.24.0329.0267.0648.0533.0702.0586.0178.0169.218.1661.3104.232.2011.1421.5257.3528.6911.4487.1494.0871.3977.2187.5649.2996.1147.0559.1459.0701.2623.1235.3309.1493.885.3412,1.2808.4426.4714.1217.9313.1955,1.3965.2257.4384.0285.7622.0285,1.2407-.0009,1.1163-.0666,2.2885-.415,3.3309-.9882.5994-.3297,1.2238-.782,1.7077-1.237.1743-.1634.2446-.2346.3904-.3909.6288-.6772,1.0913-1.3623,1.4631-2.1639.1272-.2755.3601-.9065.4313-1.1686.0053-.0195.0195-.0694.0311-.1112.0586-.199.1387-.5553.1744-.7687.0303-.1857.0498-.3287.0666-.4843.0418-.4079.0544-.7331.0401-1.0842-.0188-.4888-.0401-.7083-.1157-1.204-.0257-.168-.0934-.4746-.1654-.751-.0365-.1395-.0534-.199-.0987-.351-.0195-.0631-.1245-.3715-.1512-.44-.0285-.0764-.065-.1688-.0739-.191-.0044-.0098-.0267-.0631-.0489-.1191-.0721-.1786-.2535-.5625-.3415-.7207-.0285-.0516-.0649-.1174-.081-.1466-.1431-.2595-.3904-.6372-.5985-.9144-.619-.8256-1.4898-1.5916-2.43-2.1372-.466-.2702-.94-.4826-1.5342-.6887-.1157-.04-.643-.1866-.7739-.2151-.0755-.0164-.1511-.0324-.2267-.048-.0195-.0035-.0677-.0133-.1077-.0213-.0442-.0087-.0887-.0161-.1334-.0221-.0338-.0045-.1156-.016-.1814-.0266-.41-.0614-.828-.0907-1.2638-.088-.1486,0-.282.0017-.2971.0035ZM9.1485,1.4664c.4118.0186.5123.0285.9276.0898.0587.0081.2064.0347.2953.0524.0195.0044.056.0115.08.016.0392.0079.0686.0141.2002.0462.0168.0035.0712.0177.1201.031.0489.0134.1031.0267.1201.0311.0168.0036.0595.0151.0933.0257.0347.0107.0783.0232.0978.0285s.0454.0133.0578.0169c.0124.0044.0561.0177.0978.0311.0721.0223.1787.0595.218.0755.0097.0044.048.0178.0845.0311.0364.0134.0747.0267.0845.0311.0097.0045.08.0321.1555.0622.0757.0303.1664.0684.2002.0836.0347.0159.0845.0382.1112.0497.0267.0124.1369.0658.2446.12.1663.0845.2668.1404.5069.2808.1602.0942.5374.3573.7241.5048.4065.3216.7996.6948,1.0824,1.029.0338.0392.0792.0925.1005.1183.0391.0462.096.12.2384.311.1103.1466.3691.543.4304.6576.0116.0221.0258.0462.0311.0533.0053.0071.0294.0488.0524.0933.0232.0435.0454.0835.0489.0888.0098.0126.1343.2622.1672.3333.0142.032.0445.0959.0668.143.0214.0471.0427.0951.0462.1066.0036.0115.016.0418.0276.0676.0116.0248.0213.048.0213.0507,0,.0035.0071.0222.017.0435.0684.1565.2019.5385.2597.7483.0053.0195.0151.0533.0213.0756.0062.0221.0159.0577.0214.08.0062.0221.0142.0515.0186.0666.0195.0702.0925.3963.1068.4755.0052.0312.0111.0623.0177.0933.0115.055.04.2416.0614.4043.0116.0853.033.3093.0445.4577.0232.2949.0195.8388-.0071,1.1641-.0178.208-.057.4932-.0988.711-.0053.024-.0151.0764-.0223.1155-.011.0612-.0243.122-.04.1822-.0044.017-.0186.0729-.0312.1245-.0258.1039-.0284.1137-.0614.2266-.0133.0435-.0285.0959-.0338.1154s-.0186.0613-.0302.0933c-.0115.0321-.0214.0632-.0214.0694,0,.0062-.0035.0177-.0079.0267-.0045.008-.0197.0471-.0321.0862-.0257.0782-.0641.1857-.0756.2133-.0036.0098-.0223.0578-.04.1066-.0179.0489-.0427.1103-.0543.136-.0116.0257-.0213.0497-.0213.0533,0,.0044-.0213.0506-.0472.1048-.0269.054-.0527.1086-.0774.1636-.0301.0676-.1769.3572-.2134.4221-.0107.0195-.0392.0692-.0622.111-.274.4923-.7116,1.0716-1.1322,1.5-.0597.0595-.1166.1112-.1272.1138-.0098.0027-.048-.0009-.0845-.0081-.0365-.007-.0898-.0159-.1192-.0195-.0969-.0097-.3077-.0772-.4092-.1305-.0658-.0347-.2242-.1386-.3202-.2107-.0227-.0169-.0465-.0324-.0712-.0462-.0195-.0106-.0595-.0363-.0889-.0568-.1077-.0765-.2019-.1103-.3255-.1174-.1086-.0062-.1966.0126-.2953.0623-.1316.0666-.2748.2311-.3398.3883-.0088.0223-.0471.0898-.0836.151-.0853.1404-.1725.2311-.2632.2746-.0338.016-.0765.0365-.0934.0453-.0168.0089-.0551.0232-.0845.0312-.0293.008-.0729.0204-.0978.0276-.0285.0088-.0862.0134-.161.0134-.1298,0-.1493-.0018-.2703-.0338-.2678-.0694-.4403-.2373-.4811-.4683-.0134-.08-.0053-.5697.0133-.7873.0071-.0853.0142-.2498.016-.3644.0017-.1786,0-.2168-.0133-.2657-.0543-.1937-.1895-.3456-.4021-.4514-.4847-.2417-1.2105-.1111-1.6125.2914-.0899.0889-.1469.1671-.1975.2702-.065.1324-.0685.151-.0979.4932-.0188.2222-.0062.6033.024.7242.0098.0374.0151.1209.0179.2844.0044.2151.0035.2346-.0134.2843-.0098.0294-.0232.0712-.0285.0933-.0285.1075-.1557.2569-.2784.327-.0534.0312-.161.0712-.2162.0809-.0648.0124-.1689.0124-.2428.0009-.0729-.0124-.2276-.088-.2802-.1377-.0862-.0818-.1707-.2516-.1921-.3893-.0151-.0933-.0062-.2968.0177-.4017.0223-.0995.0391-.3048.0329-.4043-.0133-.1999-.1004-.4408-.2276-.6292-.2802-.415-.7792-.6781-1.287-.6781-.2081,0-.3674.0347-.5328.1165-.1574.0782-.2855.1893-.3824.3332-.0792.1181-.0969.1546-.161.3332-.0392.1094-.0668.1822-.0748.191-.0035.0045-.0115.0267-.0177.0489-.0356.1315-.1468.3244-.2446.4231-.0542.0551-.1468.1218-.1841.1324-.0115.0035-.0347.0142-.0515.024-.017.0098-.065.0276-.1068.04-.0712.0204-.0845.0213-.2356.0179-.2225-.0053-.2269-.0071-.3495-.1333-.1077-.1093-.2749-.3031-.3941-.455-.3753-.4798-.6787-.9758-.9064-1.4797-.0291-.0654-.0587-.1305-.0889-.1954-.024-.0516-.0561-.1254-.0712-.1645-.015-.0391-.031-.0791-.0347-.0888-.0533-.1183-.1743-.4683-.2179-.6266-.0124-.0462-.0276-.1004-.0329-.12s-.0151-.0533-.0214-.0755c-.0213-.0746-.0301-.1111-.04-.1645-.006-.0282-.0125-.0564-.0195-.0844-.0054-.017-.0116-.0471-.016-.0667-.0035-.0195-.0151-.0774-.0257-.1289-.0259-.1271-.0338-.1706-.0454-.2489-.0062-.0364-.0142-.0844-.0187-.1067-.0044-.0221-.0124-.0781-.0179-.1243-.0053-.0462-.0124-.1147-.0168-.151-.0045-.0365-.0124-.1263-.0179-.1982-.0044-.072-.0124-.1662-.0177-.2087-.0044-.0427-.0089-.2774-.0089-.5217,0-.4444.0081-.5928.0436-.8753.0044-.0365.0124-.0987.0177-.1378.0054-.0391.0151-.1048.0232-.1466.008-.0416.0178-.0977.0222-.1244.0124-.0737.0232-.1315.0391-.1999.008-.0347.0188-.0827.0232-.1066.0044-.0248.0142-.0684.0231-.0978.0077-.028.0149-.0561.0214-.0844.0711-.3155.2722-.8887.4375-1.2441.0151-.032.0427-.0933.0614-.1359.0196-.0436.0463-.0995.0606-.1245.0142-.0257.0462-.0862.0712-.135.2249-.44.5843-.9794.9338-1.3997.0222-.0266.0987-.1128.169-.191.5168-.5724,1.0567-1.0238,1.6783-1.4059.0285-.0177.1663-.0977.2037-.1181.0195-.0108.0657-.0374.1022-.0577.0818-.0463.2758-.145.3603-.1831.0347-.0151.0924-.0418.1289-.0586.0365-.0169.0952-.0427.1309-.056.0347-.0142.0809-.0338.1022-.0435.0942-.0436.3895-.1546.5319-.2009.0854-.0276.1637-.0533.1734-.0578.0151-.0062.0702-.0212.2223-.063.0197-.0062.0535-.0151.0757-.0214.0684-.0186.1093-.0294.1555-.04.025-.0053.0668-.0151.0934-.0223.0969-.0239.1734-.04.2979-.0621.0445-.008.1006-.0179.1246-.0223.4038-.0729,1.0379-.1103,1.5165-.0889h0Z"/>
        <path d="M5.9838,3.3273c-.1227.04-.1948.1599-.1716.2852.0053.0266.0142.0577.0195.0693.0053.0106.0783.0888.1619.1724l.1521.1537-.1477.1492c-.1707.1707-.1867.1965-.1859.2959,0,.0738.0195.1209.0694.1724.0489.0507.1013.0712.1806.0712.0951,0,.1272-.0205.2979-.1912l.1415-.1422.1566.1546c.1415.1404.1601.1555.2037.1689.0267.008.0631.0142.0809.0142.0863,0,.1734-.0515.2206-.1315.0212-.0364.0239-.0507.0239-.1173,0-.0568-.0044-.0844-.0168-.111-.0098-.0195-.0828-.1022-.1647-.1849l-.1467-.1483.1477-.1493c.0809-.0818.1548-.1627.1628-.1795.0097-.0187.0177-.0586.0204-.0977.0044-.0845-.0179-.1422-.0755-.1965-.0553-.0498-.0926-.0648-.1717-.0648-.096-.0009-.1281.0195-.2979.1901l-.1415.1413-.1494-.1466c-.105-.1031-.161-.1519-.1904-.1643-.0533-.0241-.1298-.0294-.1796-.0134ZM10.7965,3.329c-.0462.0169-.1075.0746-.1316.1236-.0257.0515-.0248.1733.0018.2222.0106.0195.0836.0995.1619.1777.0791.0782.1431.1457.1431.1502,0,.0053-.0675.0773-.1502.16-.1318.134-.1513.1572-.1655.1999-.0301.0924-.0071.191.0622.2604.0535.0524.0863.0648.178.0648.104,0,.113-.0053.2962-.1857l.1441-.1422.1494.1475c.1698.1689.1939.1839.2917.1848.1405,0,.2464-.1039.2473-.2443,0-.0995-.017-.1262-.186-.2969l-.1468-.1483.1424-.1413c.1698-.1698.1904-.2018.1904-.2978.0008-.08-.0214-.1333-.0766-.1821-.0533-.0489-.0986-.0668-.1716-.0668-.0969,0-.121.016-.2908.184l-.1494.1484-.1486-.1466c-.0836-.0818-.1654-.1537-.1849-.1636-.0472-.0231-.1548-.0267-.2064-.008h0ZM8.0144,4.6132c-.2935.072-.5105.3332-.5266.6345-.0187.3412.2108.6434.5452.7189.0542.0116.1699.0142.9002.0142.9294.0009.8867.0036,1.0236-.0586.1449-.0667.2641-.1839.3344-.3279.0516-.1049.0693-.1813.0693-.2977.0009-.1191-.0186-.2008-.0737-.3164-.0863-.1786-.2365-.3004-.4492-.3643-.0498-.0151-.1139-.016-.9028-.0188-.8192-.0017-.852-.0008-.9205.016h0ZM9.3129,4.9402l.4092.0053.0506.0241c.0712.0329.1352.0951.17.1662.0266.0542.0285.0639.0285.1519,0,.0844-.0026.0986-.0258.1484-.0454.0977-.153.1804-.2562.1955-.0257.0044-.3868.0053-.8031.0026l-.756-.0044-.0506-.0241c-.0712-.0329-.1352-.095-.1699-.1661-.0266-.055-.0285-.0639-.0285-.1564,0-.0898.0018-.1022.0248-.1493.0473-.0942.1468-.1724.2464-.1919.0463-.0089.5781-.0098,1.1607-.0018h0Z"/>
        <g>
          <path d="M2.7188,10.4883c-.0625,0-.1152-.0039-.1582-.0107-.043-.0078-.0791-.0254-.1084-.0527s-.0518-.0674-.0693-.1221c-.0166-.0547-.0293-.1279-.0371-.2197-.0088-.0918-.0146-.207-.0176-.3447-.002-.1387-.0039-.3047-.0039-.5s.002-.3613.0039-.498c.0029-.1377.0098-.2529.0195-.3457.0107-.0928.0264-.166.0469-.2197.0205-.0527.0488-.0938.083-.1221s.0771-.0459.1299-.0537c.0508-.0068.1133-.0107.1875-.0107h.1621c.0801,0,.1426.0078.1875.0234.0469.0166.085.0459.1152.0889.0312.043.0605.1035.0898.1807.0273.0762.0645.1748.1094.2949.0547.1445.0957.2568.125.3369s.0508.1387.0645.1758c.0146.0381.0234.0596.0273.0664s.0059.0098.0078.0098c.0039,0,.0059-.0098.0059-.0283v-.0566c0-.1689.002-.3135.0039-.4336.0039-.1201.0098-.2197.0195-.3008.0088-.0811.0225-.1445.041-.1914.0176-.0469.041-.083.0703-.1074.0283-.0244.0645-.04.1064-.0459.042-.0068.0928-.0098.1533-.0098.0625,0,.1152.0029.1582.0107s.0781.0254.1074.0518c.0293.0273.0527.0684.0693.123s.0303.1279.0381.2197c.0088.0918.0137.207.0176.3447.002.1377.0039.3047.0039.5s-.002.3613-.0039.498c-.0039.1377-.0098.252-.0215.3447-.0117.0938-.0273.167-.0469.2197-.0195.0537-.0469.0947-.083.123s-.0791.0459-.1309.0537c-.0518.0068-.1143.0107-.1865.0107h-.1641c-.0781,0-.1396-.0068-.1836-.0205-.043-.0146-.0801-.043-.1104-.085-.0312-.042-.0605-.1016-.0889-.1787s-.0664-.1777-.1133-.3018c-.0537-.1465-.0957-.2588-.126-.3389s-.0518-.1387-.0664-.1758c-.0146-.0381-.0225-.0596-.0264-.0664s-.0068-.0098-.0088-.0098c-.0039,0-.0059.0088-.0059.0283v.0557c0,.1689-.001.3135-.0039.4336s-.0088.2207-.0186.3018-.0234.1445-.041.1914-.041.083-.0703.1074-.0645.0391-.1074.0459c-.0439.0068-.0947.0098-.1523.0098ZM3.0645,8.165c0,.0156.0098.0312.0273.0469s.0332.0234.0488.0234.0273-.0039.0352-.0137c.0088-.0098.0127-.0215.0127-.0371,0-.0166-.0088-.0322-.0254-.0479-.0166-.0146-.0322-.0225-.0479-.0225s-.0273.0049-.0371.0146c-.0088.0088-.0137.0215-.0137.0361ZM4.1797,8.165c0,.0156.0088.0312.0273.0469.0176.0156.0332.0234.0488.0234s.0273-.0039.0352-.0137.0127-.0215.0127-.0371c0-.0166-.0088-.0322-.0254-.0479-.0166-.0146-.0322-.0225-.0479-.0225s-.0273.0049-.0371.0146c-.0088.0088-.0137.0215-.0137.0361Z"/>
          <path d="M4.6719,10.125c0-.0879.0039-.1572.0098-.207.0078-.0498.0234-.0869.0488-.1123s.0645-.041.1172-.0469c.0518-.0049.123-.0078.2129-.0078.0908,0,.1621.0029.2129.0078.0518.0059.0898.0215.1152.0469s.042.0625.0488.1123c.0059.0498.0098.1191.0098.207,0,.0889-.0039.1582-.0098.209-.0068.0508-.0234.0879-.0488.1133s-.0635.041-.1152.0469c-.0508.0059-.1221.0088-.2129.0088-.0898,0-.1611-.0029-.2129-.0088-.0527-.0059-.0918-.0215-.1172-.0469s-.041-.0625-.0488-.1133c-.0059-.0508-.0098-.1201-.0098-.209ZM5.2471,9.9258c.0146.0029.0264.0137.0352.0293s.0225.0234.04.0234c.0156,0,.0273-.0039.0352-.0137.0068-.0098.0107-.0205.0107-.0342,0-.0107-.0049-.0225-.0127-.0332-.0088-.0117-.0186-.0215-.0293-.0312-.0117-.0098-.0234-.0166-.0371-.0225s-.0244-.0088-.0332-.0088c-.0293,0-.043.0166-.043.0479,0,.0225.0117.0371.0342.043Z"/>
          <path d="M6.7422,9.0381c.0996,0,.1777.0029.2354.0088s.1006.0186.1279.0391c.0283.0205.0469.0518.0537.0918s.0107.0957.0107.168c0,.0713-.0039.127-.0107.167s-.0254.0713-.0537.0918c-.0273.0205-.0703.0332-.1279.0391s-.1357.0088-.2354.0088h-.2617c-.002.1953-.0078.3496-.0166.4629-.0098.1133-.0283.1992-.0576.2568-.0293.0566-.0713.0928-.125.1084-.0547.0146-.1289.0225-.2207.0225-.0996,0-.1768-.0098-.2334-.0283-.0557-.0186-.0986-.0654-.125-.1396-.0273-.0742-.0439-.1855-.0508-.334-.0068-.1475-.0098-.3506-.0098-.6074v-1.1748c0-.041.0039-.0762.0127-.1055.0078-.0293.0244-.0527.0479-.0723.0234-.0186.0557-.0322.0967-.04.041-.0088.0957-.0127.1641-.0127h.8223c.1045,0,.1875.0029.248.0078.0596.0059.1055.0195.1357.041.0312.0215.0498.0537.0576.0977.0078.043.0117.1016.0117.1768,0,.0732-.0039.1318-.0117.1748s-.0254.0752-.0566.0977c-.0293.0215-.0752.0352-.1357.042-.0615.0068-.1445.0098-.249.0098h-.3047v.4023h.2617ZM7.0381,8.1602c.0146.0029.0264.0137.0352.0293s.0225.0234.041.0234c.0146,0,.0264-.0039.0342-.0137.0068-.0098.0107-.0205.0107-.0342,0-.0107-.0039-.0225-.0127-.0332-.0078-.0117-.0176-.0215-.0293-.0312s-.0234-.0166-.0371-.0225c-.0127-.0059-.0234-.0088-.0332-.0088-.0283,0-.043.0166-.043.0479,0,.0225.0117.0371.0342.043Z"/>
          <path d="M7.8575,10.4883c-.0752,0-.1387-.0039-.1914-.0107-.0527-.0078-.0967-.0254-.1328-.0527-.0352-.0273-.0635-.0674-.084-.1221-.0215-.0547-.0371-.1279-.0469-.2197s-.0166-.207-.0195-.3447c-.0029-.1387-.0039-.3047-.0039-.5s.001-.3623.0039-.5.0098-.2529.0195-.3447.0254-.165.0469-.2197c.0205-.0547.0488-.0957.084-.1221.0361-.0273.0801-.0449.1328-.0527.0527-.0068.1162-.0107.1914-.0107s.1387.0039.1914.0107c.0527.0078.0967.0254.1328.0527.0352.0264.0635.0674.084.1221s.0361.1279.0469.2197c.0098.0918.0166.207.0195.3447.002.1377.0039.3047.0039.5s-.002.3613-.0039.5c-.0029.1377-.0098.2529-.0195.3447-.0107.0918-.0264.165-.0469.2197s-.0488.0947-.084.1221c-.0361.0273-.0801.0449-.1328.0527-.0527.0068-.1162.0107-.1914.0107ZM8.0606,8.1768c.0146.0039.0264.0137.0352.0293.0078.0156.0215.0244.041.0244.0137,0,.0254-.0049.0332-.0146.0078-.0088.0117-.0205.0117-.0332,0-.0117-.0049-.0225-.0137-.0342-.0078-.0117-.0176-.0215-.0293-.0312-.0117-.0088-.0234-.0166-.0361-.0225s-.0244-.0078-.0342-.0078c-.0273,0-.042.0156-.042.0479,0,.0225.0107.0361.0342.042Z"/>
          <path d="M8.961,10.4883c-.0576,0-.1074-.0039-.1475-.0107-.04-.0078-.0752-.0254-.1025-.0527-.0283-.0273-.0508-.0674-.0664-.1221s-.0283-.1279-.0371-.2197c-.0078-.0918-.0137-.207-.0156-.3447-.001-.1387-.002-.3047-.002-.5s.002-.3623.0059-.5.0117-.2529.0234-.3447.0312-.165.0547-.2197c.0254-.0547.0576-.0957.0996-.1221.041-.0273.0918-.0449.1523-.0527.0615-.0068.1367-.0107.2246-.0107.1289,0,.2324.0059.3096.0176.0771.0127.1367.043.1807.0908.043.0479.0752.1191.0967.2139s.042.2256.0605.3926c.0186.1748.0342.3096.0449.4043s.0195.1641.0254.207.0088.0684.0107.0762c.002.0068.0039.0107.0059.0107s.0039-.0039.0078-.0107c.002-.0078.0059-.0332.0117-.0762s.0137-.1123.0244-.207.0264-.2295.0459-.4043c.0137-.1104.0264-.2051.0391-.2842.0117-.0791.0273-.1445.0459-.1973s.042-.0947.0703-.125c.0283-.0312.0645-.0547.1084-.0703.0449-.0166.0977-.0264.1592-.0312s.1377-.0068.2256-.0068c.0859,0,.1602.0039.2227.0107.0625.0078.1133.0254.1543.0527.041.0264.0742.0674.0977.1221s.041.1279.0527.2197.0215.207.0234.3447c.0039.1377.0059.3047.0059.5s0,.3613-.002.5c-.002.1377-.0078.2529-.0156.3447s-.0215.165-.0371.2197-.0371.0947-.0664.1221c-.0273.0273-.0625.0449-.1016.0527-.041.0068-.0898.0107-.1484.0107-.0547,0-.1016-.0029-.1406-.0098s-.0723-.0215-.0996-.0449-.0488-.0566-.0664-.0996c-.0176-.0439-.0293-.1025-.0381-.1768-.0088-.0732-.0146-.165-.0166-.2725-.0039-.1084-.0049-.2393-.0049-.3936v-.0459c0-.0176-.001-.0342-.001-.0498-.001-.0146-.002-.0273-.0039-.0371-.002-.0107-.0039-.0156-.0059-.0156-.0039,0-.0068.0039-.0088.0107-.002.0078-.0059.0293-.0127.0664-.0059.0361-.0156.0928-.0283.1689s-.0283.1816-.0488.3164c-.0205.1377-.04.2451-.0576.3232-.0176.0771-.042.1357-.0723.1738-.0293.0391-.0693.0625-.1182.0723-.0488.0088-.1152.0137-.2002.0137-.084,0-.1504-.0049-.1992-.0137-.0488-.0098-.0889-.0332-.1191-.0723-.0293-.0381-.0547-.0967-.0723-.1738-.0195-.0781-.0391-.1855-.0596-.3232-.0205-.1348-.0361-.2402-.0479-.3164s-.0205-.1328-.0273-.1689c-.0059-.0371-.0107-.0586-.0137-.0664-.0029-.0068-.0049-.0107-.0068-.0107-.0039,0-.0068.0049-.0068.0156-.002.0098-.002.0225-.0029.0371-.001.0156-.001.0322-.001.0498v.0459c0,.1523-.002.2832-.0049.3916-.0029.1094-.0088.2012-.0166.2744-.0088.0742-.0215.1338-.0381.1777s-.0391.0771-.0664.0996c-.0273.0234-.0605.0371-.1006.0439-.0391.0068-.0859.0098-.1406.0098ZM9.4454,8.165c0,.0156.0098.0312.0273.0469s.0342.0234.0488.0234c.0156,0,.0273-.0039.0352-.0137.0088-.0098.0137-.0215.0137-.0371,0-.0166-.0098-.0322-.0254-.0479-.0176-.0146-.0332-.0225-.0488-.0225-.0146,0-.0273.0049-.0361.0146-.0098.0088-.0146.0215-.0146.0361ZM10.8731,8.165c0,.0156.0098.0312.0273.0469s.0332.0234.0488.0234.0273-.0039.0352-.0137.0137-.0215.0137-.0371c0-.0166-.0098-.0322-.0254-.0479-.0176-.0146-.0332-.0225-.0488-.0225s-.0273.0049-.0371.0146c-.0078.0088-.0137.0215-.0137.0361Z"/>
          <path d="M12.1631,10.0264c-.0205.1094-.043.1953-.0664.2578-.0234.0635-.0518.1113-.0859.1436-.0332.0332-.0762.0537-.1279.0625-.0518.0078-.1162.0127-.1924.0127-.0664,0-.123-.0049-.1709-.0127-.0479-.0088-.0869-.0273-.1172-.0566-.0293-.0293-.0498-.0713-.0615-.125-.0117-.0547-.0137-.1289-.0088-.2227.0059-.0938.0205-.21.043-.3496.0225-.1387.0537-.3057.0957-.501.041-.1973.0781-.3652.1113-.5039.0322-.1387.0664-.2559.1025-.3496.0352-.0938.0732-.167.1143-.2207.04-.0537.0879-.0947.1445-.1221.0566-.0283.1221-.0469.1973-.0537.0752-.0078.1641-.0117.2676-.0117s.1924.0039.2676.0117c.0752.0068.1406.0254.1973.0537.0557.0273.1045.0684.1445.1221.041.0537.0781.127.1143.2207.0352.0938.0703.2109.1045.3496.0332.1387.0713.3066.1123.5039.041.1953.0732.3623.0967.501.0244.1396.0381.2559.043.3496s.001.168-.0098.2227c-.0117.0537-.0332.0957-.0635.125-.0312.0293-.0703.0479-.1182.0566-.0479.0078-.1055.0127-.1709.0127-.0791,0-.1436-.0049-.1943-.0127-.0508-.0088-.0928-.0293-.127-.0625-.0332-.0322-.0615-.0801-.084-.1436-.0225-.0625-.0439-.1484-.0645-.2578-.0381.002-.0781.0029-.1201.0029h-.2607c-.0391,0-.0762-.001-.1123-.0029ZM12.3995,9.3818h.0752c.0234,0,.0469.001.0713.0029-.0225-.1357-.041-.2402-.0547-.3154s-.0254-.1309-.0352-.166c-.0098-.0361-.0176-.0576-.0254-.0654-.0078-.0068-.0146-.0107-.0225-.0107-.0098,0-.0176.0039-.0254.0107-.0078.0078-.0156.0293-.0254.0635-.0098.0352-.0205.0898-.0342.165-.0127.0752-.0303.1807-.0527.3154h.1289ZM12.7569,8.2412c.0381,0,.0703.0137.0977.04.0273.0254.0439.0498.0488.0732.0039.0146.0117.0244.0244.0303.0117.0059.0264.0049.0439-.0029.0146-.0068.0234-.0176.0254-.0303.001-.0137.001-.0244-.0029-.0342-.0205-.0547-.0508-.0967-.0908-.1279-.0391-.0312-.0869-.0469-.1436-.0469-.0166,0-.0312.0039-.0449.0098-.0127.0068-.0195.0205-.0195.041s.0068.0342.0195.04c.0137.0049.0273.0078.042.0078Z"/>
          <path d="M14.4727,9.8945c-.0039.1328-.0117.2393-.0244.3193-.0117.0801-.0332.1406-.0645.1836-.0312.042-.0732.0703-.125.084-.0527.0137-.1201.0215-.2031.0215-.0996,0-.1777-.0098-.2334-.0283-.0566-.0186-.0986-.0654-.126-.1396s-.0439-.1855-.0508-.334c-.0059-.1475-.0098-.3506-.0098-.6074v-1.1748c0-.041.0049-.0762.0127-.1055.0088-.0293.0244-.0527.0479-.0723.0234-.0186.0566-.0322.0977-.04.041-.0088.0957-.0127.1631-.0127h.6475c.2129,0,.3848.0156.5186.0488.1328.0332.2373.0869.3115.1621.0732.0752.124.1729.1514.2939s.041.2705.041.4463c0,.1826-.0156.334-.0469.4561-.0303.1221-.084.2207-.1582.2949-.0752.0742-.1768.127-.3047.1572-.1279.0312-.2871.0469-.4785.0469h-.166ZM14.5342,9.2773c.0869,0,.1445-.0234.1748-.0703s.0449-.1299.0449-.25v-.0254c0-.1094-.0156-.1855-.0479-.2295-.0322-.0449-.0898-.0664-.1748-.0664h-.0557v.6416h.0586ZM15.1397,8.2559c.0752.0371.127.0781.1553.123.0088.0156.0205.0244.0352.0273.0137.0029.0264.001.0361-.0039.0107-.0059.0176-.0156.0215-.0283.0039-.0137,0-.0283-.0117-.0449-.0225-.0381-.0508-.0713-.0859-.0986-.0342-.0283-.0684-.0498-.1025-.0654-.0146-.0049-.0312-.0078-.0479-.0078s-.0303.0068-.0391.0225c-.0117.0205-.0117.0361,0,.0479.0107.0107.0244.0205.0391.0283Z"/>
        </g>
      </g>
    </g>
  </g>
</svg>